<svg xmlns="http://www.w3.org/2000/svg" width="31.55" height="31.551" viewBox="0 0 31.55 31.551">
  <g id="instagram_2_" data-name="instagram (2)" transform="translate(-0.005)">
    <g id="Group_116" data-name="Group 116" transform="translate(0.005)">
      <g id="Group_115" data-name="Group 115" transform="translate(0)">
        <path id="Path_102" data-name="Path 102" d="M23.668,0H7.893A7.911,7.911,0,0,0,0,7.888V23.663a7.912,7.912,0,0,0,7.888,7.888H23.668a7.912,7.912,0,0,0,7.888-7.888V7.888A7.911,7.911,0,0,0,23.668,0Zm5.258,23.663a5.264,5.264,0,0,1-5.258,5.258H7.893a5.265,5.265,0,0,1-5.258-5.258V7.888A5.264,5.264,0,0,1,7.893,2.629H23.668a5.264,5.264,0,0,1,5.258,5.258V23.663Z" transform="translate(-0.005)" fill="#fff"/>
      </g>
    </g>
    <g id="Group_118" data-name="Group 118" transform="translate(22.354 5.258)">
      <g id="Group_117" data-name="Group 117">
        <circle id="Ellipse_31" data-name="Ellipse 31" cx="1.972" cy="1.972" r="1.972" fill="#fff"/>
      </g>
    </g>
    <g id="Group_120" data-name="Group 120" transform="translate(7.893 7.888)">
      <g id="Group_119" data-name="Group 119">
        <path id="Path_103" data-name="Path 103" d="M110.293,102.4a7.888,7.888,0,1,0,7.888,7.888A7.887,7.887,0,0,0,110.293,102.4Zm0,13.147a5.259,5.259,0,1,1,5.258-5.259A5.259,5.259,0,0,1,110.293,115.546Z" transform="translate(-102.405 -102.4)" fill="#fff"/>
      </g>
    </g>
  </g>
</svg>
