<svg xmlns="http://www.w3.org/2000/svg" width="25.96" height="25.96" viewBox="0 0 25.96 25.96">
  <g id="_x31_0.Linkedin" transform="translate(-10 -10)">
    <path id="Path_99" data-name="Path 99" d="M55.077,53.05V43.542c0-4.673-1.006-8.242-6.458-8.242a5.635,5.635,0,0,0-5.095,2.791H43.46V35.722H38.3V53.05h5.387v-8.6c0-2.271.422-4.446,3.213-4.446,2.758,0,2.791,2.564,2.791,4.575v8.437h5.387Z" transform="translate(-19.117 -17.09)" fill="#fff"/>
    <path id="Path_100" data-name="Path 100" d="M11.3,36.6h5.387V53.928H11.3Z" transform="translate(-0.878 -17.968)" fill="#fff"/>
    <path id="Path_101" data-name="Path 101" d="M13.115,10a3.131,3.131,0,1,0,3.115,3.115A3.116,3.116,0,0,0,13.115,10Z" fill="#fff"/>
  </g>
</svg>
