<svg xmlns="http://www.w3.org/2000/svg" xmlns:xlink="http://www.w3.org/1999/xlink" width="2151.24" height="709.385" viewBox="0 0 2151.24 709.385">
  <defs>
    <clipPath id="clip-path">
      <path id="Path_1199" data-name="Path 1199" d="M0,324.119H837.24V-114.267H0Z" transform="translate(0 114.267)" fill="none" stroke="#40948d" stroke-width="1.5"/>
    </clipPath>
  </defs>
  <g id="Group_865" data-name="Group 865" transform="translate(539 114.267)">
    <g id="Group_864" data-name="Group 864" transform="translate(0 -114.267)" clip-path="url(#clip-path)">
      <g id="Group_851" data-name="Group 851" transform="translate(317.9 181.562)">
        <path id="Path_1186" data-name="Path 1186" d="M176.755,7.416A34.233,34.233,0,0,0,118.314,32.15l-.1-.1A53.784,53.784,0,0,1,89.667,81.553c-.123.061-.242.13-.364.2-.391.2-.786.391-1.185.587-.445.215-.894.434-1.343.637-.234.1-.464.207-.694.307A54.133,54.133,0,0,1,62.612,87.71l.069.069c-.15,0-.3,0-.457,0s-.292,0-.437,0l.1-.1A53.793,53.793,0,0,1,12.384,59.132c-.061-.123-.13-.242-.192-.361-.207-.391-.4-.79-.591-1.185-.215-.445-.434-.894-.637-1.347-.1-.23-.207-.46-.307-.694A54.116,54.116,0,0,1,6.227,32.081l-.069.069A34.141,34.141,0,0,0-3.86,7.416a34.238,34.238,0,0,0-48.424,0,34.237,34.237,0,0,0,0,48.424,34.117,34.117,0,0,0,24.73,10.017l-.1.1A53.642,53.642,0,0,1,12.338,81.645a53.758,53.758,0,0,1,9.511,12.864c.065.119.134.238.2.361.2.391.391.786.587,1.182.219.449.434.9.637,1.347.107.23.207.464.311.694a54.093,54.093,0,0,1,4.447,21.354,34.306,34.306,0,1,0,68.451.414,53.721,53.721,0,0,1,28.563-47.772c.123-.065.242-.134.361-.2.391-.2.79-.4,1.185-.587.449-.219.894-.434,1.347-.637.23-.107.46-.207.694-.311A54.1,54.1,0,0,1,152.09,65.93l-.069-.073A34.233,34.233,0,0,0,176.755,7.416Z" transform="translate(62.315 2.615)" fill="none" stroke="#40948d" stroke-width="1.5"/>
      </g>
      <g id="Group_852" data-name="Group 852" transform="translate(408.134 181.561)">
        <path id="Path_1187" data-name="Path 1187" d="M0,25.435a34.4,34.4,0,1,0,34.4-34.4A34.4,34.4,0,0,0,0,25.435Z" transform="translate(0 8.967)" fill="none" stroke="#40948d" stroke-width="1.5"/>
      </g>
      <g id="Group_853" data-name="Group 853" transform="translate(227.836 0.456)">
        <path id="Path_1188" data-name="Path 1188" d="M7.414,110.039A34.233,34.233,0,0,0,65.855,85.305l.1.1A53.773,53.773,0,0,1,94.506,35.9c.119-.061.238-.13.361-.192.391-.207.786-.4,1.185-.591.445-.215.894-.434,1.343-.637.234-.1.464-.207.694-.307a54.133,54.133,0,0,1,23.468-4.431l-.069-.069c.153,0,.3,0,.457,0s.292,0,.437,0l-.1.1a53.793,53.793,0,0,1,49.506,28.547c.061.123.13.242.2.361.2.391.391.79.587,1.185.215.449.434.894.637,1.347.1.23.207.46.307.694a54.123,54.123,0,0,1,4.431,23.468l.069-.073A34.241,34.241,0,1,0,211.723,51.6l.1-.1a53.633,53.633,0,0,1-39.988-15.684,53.831,53.831,0,0,1-9.515-12.86c-.065-.123-.134-.242-.2-.364-.2-.391-.391-.786-.587-1.182-.219-.449-.434-.894-.637-1.347-.107-.23-.207-.464-.307-.694a54.012,54.012,0,0,1-4.45-21.35,34.15,34.15,0,0,0-9.921-26.779,34.133,34.133,0,0,0-24.289-10.029A34.131,34.131,0,0,0,97.648-28.765,34.14,34.14,0,0,0,87.7-2.4a53.616,53.616,0,0,1-15.7,38.258A53.748,53.748,0,0,1,59.13,45.367c-.123.065-.242.134-.361.2-.391.2-.79.4-1.185.587-.445.219-.894.434-1.347.637-.23.107-.46.207-.694.311a54.162,54.162,0,0,1-23.464,4.431l.069.069A34.233,34.233,0,0,0,7.414,110.039Z" transform="translate(2.614 38.794)" fill="none" stroke="#40948d" stroke-width="1.5"/>
      </g>
      <g id="Group_854" data-name="Group 854" transform="translate(317.9 90.52)">
        <path id="Path_1189" data-name="Path 1189" d="M50.867,25.432a34.4,34.4,0,1,0-34.4,34.4A34.4,34.4,0,0,0,50.867,25.432Z" transform="translate(17.933 8.966)" fill="none" stroke="#40948d" stroke-width="1.5"/>
      </g>
      <g id="Group_855" data-name="Group 855" transform="translate(497.454 91.499)">
        <path id="Path_1190" data-name="Path 1190" d="M176.755,7.416A34.233,34.233,0,0,0,118.314,32.15l-.1-.1A53.784,53.784,0,0,1,89.667,81.553c-.123.061-.242.13-.364.192-.391.207-.786.4-1.185.591-.445.215-.894.434-1.343.637-.234.1-.464.207-.694.307A54.133,54.133,0,0,1,62.612,87.71l.069.069c-.15,0-.3,0-.457,0s-.292,0-.437,0l.1-.1A53.793,53.793,0,0,1,12.384,59.132c-.061-.123-.13-.242-.192-.361-.207-.391-.4-.79-.587-1.185-.219-.449-.437-.894-.641-1.347-.1-.23-.207-.46-.307-.694A54.123,54.123,0,0,1,6.227,32.077l-.069.073A34.141,34.141,0,0,0-3.86,7.416a34.238,34.238,0,0,0-48.424,0,34.237,34.237,0,0,0,0,48.424A34.119,34.119,0,0,0-27.55,65.858l-.1.1A53.628,53.628,0,0,1,12.334,81.645,53.831,53.831,0,0,1,21.849,94.5c.065.123.134.242.2.364.2.391.391.786.587,1.182.219.449.434.9.637,1.347.107.23.207.464.311.694a54.075,54.075,0,0,1,4.447,21.35,34.306,34.306,0,1,0,68.451.418,53.721,53.721,0,0,1,28.563-47.772c.123-.065.242-.134.361-.2.391-.2.79-.4,1.185-.587.449-.219.894-.434,1.347-.637.23-.107.46-.207.694-.311a54.162,54.162,0,0,1,23.464-4.431l-.069-.069A34.233,34.233,0,0,0,176.755,7.416Z" transform="translate(62.315 2.615)" fill="none" stroke="#40948d" stroke-width="1.5"/>
      </g>
      <g id="Group_856" data-name="Group 856" transform="translate(587.688 91.502)">
        <path id="Path_1191" data-name="Path 1191" d="M0,25.432a34.4,34.4,0,1,0,34.4-34.4A34.4,34.4,0,0,0,0,25.432Z" transform="translate(0 8.966)" fill="none" stroke="#40948d" stroke-width="1.5"/>
      </g>
      <g id="Group_857" data-name="Group 857" transform="translate(407.387 279.069)">
        <path id="Path_1192" data-name="Path 1192" d="M7.416,110.039A34.233,34.233,0,0,0,65.858,85.305l.1.1A53.784,53.784,0,0,1,94.5,35.9c.123-.061.242-.13.364-.2.391-.2.786-.391,1.185-.587.445-.215.894-.434,1.343-.637.234-.1.464-.207.694-.307a54.133,54.133,0,0,1,23.468-4.431l-.069-.069c.15,0,.3,0,.457,0s.292,0,.437,0l-.1.1a53.793,53.793,0,0,1,49.506,28.547c.061.123.13.242.192.361.207.391.4.79.587,1.185.219.449.437.894.641,1.347.1.23.2.46.307.694a54.123,54.123,0,0,1,4.431,23.468l.069-.073A34.241,34.241,0,1,0,211.725,51.6l.1-.1a53.642,53.642,0,0,1-39.992-15.684,53.815,53.815,0,0,1-9.511-12.86c-.065-.123-.134-.242-.2-.364-.2-.391-.4-.786-.587-1.182-.219-.449-.434-.894-.637-1.347-.107-.23-.207-.464-.311-.694a54.089,54.089,0,0,1-4.447-21.35,34.15,34.15,0,0,0-9.921-26.779,34.133,34.133,0,0,0-24.289-10.029A34.131,34.131,0,0,0,97.651-28.765,34.157,34.157,0,0,0,87.695-2.4,53.611,53.611,0,0,1,72,35.857a53.834,53.834,0,0,1-12.864,9.511c-.123.065-.242.134-.361.2-.391.2-.79.4-1.185.587-.449.219-.894.434-1.347.637-.23.107-.46.207-.694.311a54.179,54.179,0,0,1-23.468,4.431l.073.069A34.233,34.233,0,0,0,7.416,110.039Z" transform="translate(2.615 38.794)" fill="none" stroke="#40948d" stroke-width="1.5"/>
      </g>
      <g id="Group_858" data-name="Group 858" transform="translate(497.453 369.13)">
        <path id="Path_1193" data-name="Path 1193" d="M50.867,25.435a34.4,34.4,0,1,0-34.4,34.4A34.4,34.4,0,0,0,50.867,25.435Z" transform="translate(17.933 8.967)" fill="none" stroke="#40948d" stroke-width="1.5"/>
      </g>
      <g id="Group_859" data-name="Group 859" transform="translate(137.024 271.446)">
        <path id="Path_1194" data-name="Path 1194" d="M176.755,7.416A34.233,34.233,0,0,0,118.314,32.15l-.1-.1A53.784,53.784,0,0,1,89.667,81.553c-.123.061-.242.13-.364.2-.391.2-.786.391-1.185.587-.445.215-.894.434-1.343.637-.234.1-.464.207-.694.307A54.133,54.133,0,0,1,62.612,87.71l.069.069c-.15,0-.3,0-.457,0s-.292,0-.437,0l.1-.1A53.793,53.793,0,0,1,12.384,59.132c-.061-.123-.13-.242-.192-.361-.207-.391-.4-.79-.587-1.185-.219-.445-.437-.894-.641-1.347-.1-.23-.2-.46-.307-.694A54.172,54.172,0,0,1,6.227,32.081l-.069.069A34.141,34.141,0,0,0-3.86,7.416a34.238,34.238,0,0,0-48.424,0,34.237,34.237,0,0,0,0,48.424,34.117,34.117,0,0,0,24.73,10.017l-.1.1A53.642,53.642,0,0,1,12.338,81.645a53.758,53.758,0,0,1,9.511,12.864c.065.119.134.238.2.361.2.391.4.786.587,1.182.219.449.434.9.637,1.347.107.23.207.464.311.694a54.093,54.093,0,0,1,4.447,21.354,34.306,34.306,0,1,0,68.451.414,53.721,53.721,0,0,1,28.563-47.772c.123-.065.242-.134.361-.2.4-.2.79-.4,1.185-.587.449-.219.894-.434,1.347-.637.23-.107.46-.207.694-.311a54.168,54.168,0,0,1,23.468-4.431l-.073-.069A34.233,34.233,0,0,0,176.755,7.416Z" transform="translate(62.315 2.615)" fill="none" stroke="#40948d" stroke-width="1.5"/>
      </g>
      <g id="Group_860" data-name="Group 860" transform="translate(227.258 271.448)">
        <path id="Path_1195" data-name="Path 1195" d="M0,25.432a34.4,34.4,0,1,0,34.4-34.4A34.4,34.4,0,0,0,0,25.432Z" transform="translate(0 8.966)" fill="none" stroke="#40948d" stroke-width="1.5"/>
      </g>
      <g id="Group_861" data-name="Group 861" transform="translate(587.69 192.016)">
        <path id="Path_1196" data-name="Path 1196" d="M7.414,110.039A34.233,34.233,0,0,0,65.855,85.305l.1.1A53.784,53.784,0,0,1,94.5,35.9c.123-.061.242-.13.364-.2.391-.2.786-.391,1.185-.587.445-.215.894-.434,1.343-.637.234-.1.464-.207.694-.307a54.133,54.133,0,0,1,23.468-4.431l-.069-.069c.15,0,.3,0,.457,0s.292,0,.437,0l-.1.1a53.773,53.773,0,0,1,49.506,28.547c.061.123.13.242.192.361.207.391.4.79.587,1.185.219.445.437.894.641,1.347.1.23.207.46.307.694a54.106,54.106,0,0,1,4.431,23.464l.069-.069A34.241,34.241,0,1,0,211.723,51.6l.1-.1a53.642,53.642,0,0,1-39.988-15.684,53.672,53.672,0,0,1-9.515-12.864c-.065-.119-.134-.238-.2-.361-.2-.391-.4-.786-.587-1.182-.219-.449-.434-.894-.637-1.347-.107-.23-.207-.464-.311-.694A54.093,54.093,0,0,1,156.144-1.99a34.155,34.155,0,0,0-9.921-26.779,34.145,34.145,0,0,0-24.289-10.025A34.143,34.143,0,0,0,97.648-28.769,34.17,34.17,0,0,0,87.693-2.4a53.6,53.6,0,0,1-15.7,38.258A53.851,53.851,0,0,1,59.13,45.367c-.123.065-.242.134-.361.2-.391.2-.79.4-1.185.587-.449.219-.894.434-1.347.637-.23.107-.46.207-.694.311a54.1,54.1,0,0,1-23.464,4.427l.069.073A34.233,34.233,0,0,0,7.414,110.039Z" transform="translate(2.614 38.794)" fill="none" stroke="#40948d" stroke-width="1.5"/>
      </g>
      <g id="Group_862" data-name="Group 862" transform="translate(677.753 282.077)">
        <path id="Path_1197" data-name="Path 1197" d="M50.867,25.435a34.4,34.4,0,1,0-34.4,34.4A34.4,34.4,0,0,0,50.867,25.435Z" transform="translate(17.933 8.967)" fill="none" stroke="#40948d" stroke-width="1.5"/>
      </g>
      <g id="Group_863" data-name="Group 863" transform="translate(0.455 171.141)">
        <path id="Path_1198" data-name="Path 1198" d="M146.057,25.492a34.471,34.471,0,0,0-59.22-24V1.345A54.022,54.022,0,0,1,47.2,18.651a54.2,54.2,0,0,1-15.929-2.382c-.134-.042-.269-.077-.4-.119-.422-.134-.84-.284-1.258-.426-.476-.165-.948-.326-1.416-.5l-.714-.276A54.523,54.523,0,0,1,7.621,1.391v.1c-.107-.107-.219-.211-.326-.322A34.366,34.366,0,0,0-17.121-8.987,34.334,34.334,0,0,0-39.6-.639c-.5.5-1,1.009-1.515,1.492h.1A34.362,34.362,0,0,0-51.492,25.6,34.369,34.369,0,0,0-41.448,49.923,34.372,34.372,0,0,0-17.121,59.97,34.37,34.37,0,0,0,7.621,49.493v.146c.4-.426.809-.836,1.22-1.247A54.111,54.111,0,0,1,63.193,34.715c.13.042.265.077.4.119.426.134.84.284,1.262.426.472.165.944.326,1.412.5l.714.276A54.49,54.49,0,0,1,86.837,49.593v-.1a34.471,34.471,0,0,0,59.22-24Z" transform="translate(51.492 8.987)" fill="none" stroke="#40948d" stroke-width="1.5"/>
      </g>
    </g>
    <g id="Group_890" data-name="Group 890" transform="translate(1612.24 421.12) rotate(180)" clip-path="url(#clip-path)">
      <g id="Group_877" data-name="Group 877" transform="translate(317.9 181.562)">
        <path id="Path_1210" data-name="Path 1210" d="M176.755,7.416A34.233,34.233,0,0,0,118.314,32.15l-.1-.1A53.784,53.784,0,0,1,89.667,81.553c-.123.061-.242.13-.364.2-.391.2-.786.391-1.185.587-.445.215-.894.434-1.343.637-.234.1-.464.207-.694.307A54.133,54.133,0,0,1,62.612,87.71l.069.069c-.15,0-.3,0-.457,0s-.292,0-.437,0l.1-.1A53.793,53.793,0,0,1,12.384,59.132c-.061-.123-.13-.242-.192-.361-.207-.391-.4-.79-.591-1.185-.215-.445-.434-.894-.637-1.347-.1-.23-.207-.46-.307-.694A54.116,54.116,0,0,1,6.227,32.081l-.069.069A34.141,34.141,0,0,0-3.86,7.416a34.238,34.238,0,0,0-48.424,0,34.237,34.237,0,0,0,0,48.424,34.117,34.117,0,0,0,24.73,10.017l-.1.1A53.642,53.642,0,0,1,12.338,81.645a53.758,53.758,0,0,1,9.511,12.864c.065.119.134.238.2.361.2.391.391.786.587,1.182.219.449.434.9.637,1.347.107.23.207.464.311.694a54.093,54.093,0,0,1,4.447,21.354,34.306,34.306,0,1,0,68.451.414,53.721,53.721,0,0,1,28.563-47.772c.123-.065.242-.134.361-.2.391-.2.79-.4,1.185-.587.449-.219.894-.434,1.347-.637.23-.107.46-.207.694-.311A54.1,54.1,0,0,1,152.09,65.93l-.069-.073A34.233,34.233,0,0,0,176.755,7.416Z" transform="translate(62.315 2.615)" fill="none" stroke="#40948d" stroke-width="1.5"/>
      </g>
      <g id="Group_878" data-name="Group 878" transform="translate(408.134 181.561)">
        <path id="Path_1211" data-name="Path 1211" d="M0,25.435a34.4,34.4,0,1,0,34.4-34.4A34.4,34.4,0,0,0,0,25.435Z" transform="translate(0 8.967)" fill="none" stroke="#40948d" stroke-width="1.5"/>
      </g>
      <g id="Group_879" data-name="Group 879" transform="translate(227.836 0.456)">
        <path id="Path_1212" data-name="Path 1212" d="M7.414,110.039A34.233,34.233,0,0,0,65.855,85.305l.1.1A53.773,53.773,0,0,1,94.506,35.9c.119-.061.238-.13.361-.192.391-.207.786-.4,1.185-.591.445-.215.894-.434,1.343-.637.234-.1.464-.207.694-.307a54.133,54.133,0,0,1,23.468-4.431l-.069-.069c.153,0,.3,0,.457,0s.292,0,.437,0l-.1.1a53.793,53.793,0,0,1,49.506,28.547c.061.123.13.242.2.361.2.391.391.79.587,1.185.215.449.434.894.637,1.347.1.23.207.46.307.694a54.123,54.123,0,0,1,4.431,23.468l.069-.073A34.241,34.241,0,1,0,211.723,51.6l.1-.1a53.633,53.633,0,0,1-39.988-15.684,53.831,53.831,0,0,1-9.515-12.86c-.065-.123-.134-.242-.2-.364-.2-.391-.391-.786-.587-1.182-.219-.449-.434-.894-.637-1.347-.107-.23-.207-.464-.307-.694a54.012,54.012,0,0,1-4.45-21.35,34.15,34.15,0,0,0-9.921-26.779,34.133,34.133,0,0,0-24.289-10.029A34.131,34.131,0,0,0,97.648-28.765,34.14,34.14,0,0,0,87.7-2.4a53.616,53.616,0,0,1-15.7,38.258A53.748,53.748,0,0,1,59.13,45.367c-.123.065-.242.134-.361.2-.391.2-.79.4-1.185.587-.445.219-.894.434-1.347.637-.23.107-.46.207-.694.311a54.162,54.162,0,0,1-23.464,4.431l.069.069A34.233,34.233,0,0,0,7.414,110.039Z" transform="translate(2.614 38.794)" fill="none" stroke="#40948d" stroke-width="1.5"/>
      </g>
      <g id="Group_880" data-name="Group 880" transform="translate(317.9 90.52)">
        <path id="Path_1213" data-name="Path 1213" d="M50.867,25.432a34.4,34.4,0,1,0-34.4,34.4A34.4,34.4,0,0,0,50.867,25.432Z" transform="translate(17.933 8.966)" fill="none" stroke="#40948d" stroke-width="1.5"/>
      </g>
      <g id="Group_881" data-name="Group 881" transform="translate(497.454 91.499)">
        <path id="Path_1214" data-name="Path 1214" d="M176.755,7.416A34.233,34.233,0,0,0,118.314,32.15l-.1-.1A53.784,53.784,0,0,1,89.667,81.553c-.123.061-.242.13-.364.192-.391.207-.786.4-1.185.591-.445.215-.894.434-1.343.637-.234.1-.464.207-.694.307A54.133,54.133,0,0,1,62.612,87.71l.069.069c-.15,0-.3,0-.457,0s-.292,0-.437,0l.1-.1A53.793,53.793,0,0,1,12.384,59.132c-.061-.123-.13-.242-.192-.361-.207-.391-.4-.79-.587-1.185-.219-.449-.437-.894-.641-1.347-.1-.23-.207-.46-.307-.694A54.123,54.123,0,0,1,6.227,32.077l-.069.073A34.141,34.141,0,0,0-3.86,7.416a34.238,34.238,0,0,0-48.424,0,34.237,34.237,0,0,0,0,48.424A34.119,34.119,0,0,0-27.55,65.858l-.1.1A53.628,53.628,0,0,1,12.334,81.645,53.831,53.831,0,0,1,21.849,94.5c.065.123.134.242.2.364.2.391.391.786.587,1.182.219.449.434.9.637,1.347.107.23.207.464.311.694a54.075,54.075,0,0,1,4.447,21.35,34.306,34.306,0,1,0,68.451.418,53.721,53.721,0,0,1,28.563-47.772c.123-.065.242-.134.361-.2.391-.2.79-.4,1.185-.587.449-.219.894-.434,1.347-.637.23-.107.46-.207.694-.311a54.162,54.162,0,0,1,23.464-4.431l-.069-.069A34.233,34.233,0,0,0,176.755,7.416Z" transform="translate(62.315 2.615)" fill="none" stroke="#40948d" stroke-width="1.5"/>
      </g>
      <g id="Group_882" data-name="Group 882" transform="translate(587.688 91.502)">
        <path id="Path_1215" data-name="Path 1215" d="M0,25.432a34.4,34.4,0,1,0,34.4-34.4A34.4,34.4,0,0,0,0,25.432Z" transform="translate(0 8.966)" fill="none" stroke="#40948d" stroke-width="1.5"/>
      </g>
      <g id="Group_883" data-name="Group 883" transform="translate(407.387 279.069)">
        <path id="Path_1216" data-name="Path 1216" d="M7.416,110.039A34.233,34.233,0,0,0,65.858,85.305l.1.1A53.784,53.784,0,0,1,94.5,35.9c.123-.061.242-.13.364-.2.391-.2.786-.391,1.185-.587.445-.215.894-.434,1.343-.637.234-.1.464-.207.694-.307a54.133,54.133,0,0,1,23.468-4.431l-.069-.069c.15,0,.3,0,.457,0s.292,0,.437,0l-.1.1a53.793,53.793,0,0,1,49.506,28.547c.061.123.13.242.192.361.207.391.4.79.587,1.185.219.449.437.894.641,1.347.1.23.2.46.307.694a54.123,54.123,0,0,1,4.431,23.468l.069-.073A34.241,34.241,0,1,0,211.725,51.6l.1-.1a53.642,53.642,0,0,1-39.992-15.684,53.815,53.815,0,0,1-9.511-12.86c-.065-.123-.134-.242-.2-.364-.2-.391-.4-.786-.587-1.182-.219-.449-.434-.894-.637-1.347-.107-.23-.207-.464-.311-.694a54.089,54.089,0,0,1-4.447-21.35,34.15,34.15,0,0,0-9.921-26.779,34.133,34.133,0,0,0-24.289-10.029A34.131,34.131,0,0,0,97.651-28.765,34.157,34.157,0,0,0,87.695-2.4,53.611,53.611,0,0,1,72,35.857a53.834,53.834,0,0,1-12.864,9.511c-.123.065-.242.134-.361.2-.391.2-.79.4-1.185.587-.449.219-.894.434-1.347.637-.23.107-.46.207-.694.311a54.179,54.179,0,0,1-23.468,4.431l.073.069A34.233,34.233,0,0,0,7.416,110.039Z" transform="translate(2.615 38.794)" fill="none" stroke="#40948d" stroke-width="1.5"/>
      </g>
      <g id="Group_884" data-name="Group 884" transform="translate(497.453 369.13)">
        <path id="Path_1217" data-name="Path 1217" d="M50.867,25.435a34.4,34.4,0,1,0-34.4,34.4A34.4,34.4,0,0,0,50.867,25.435Z" transform="translate(17.933 8.967)" fill="none" stroke="#40948d" stroke-width="1.5"/>
      </g>
      <g id="Group_885" data-name="Group 885" transform="translate(137.024 271.446)">
        <path id="Path_1218" data-name="Path 1218" d="M176.755,7.416A34.233,34.233,0,0,0,118.314,32.15l-.1-.1A53.784,53.784,0,0,1,89.667,81.553c-.123.061-.242.13-.364.2-.391.2-.786.391-1.185.587-.445.215-.894.434-1.343.637-.234.1-.464.207-.694.307A54.133,54.133,0,0,1,62.612,87.71l.069.069c-.15,0-.3,0-.457,0s-.292,0-.437,0l.1-.1A53.793,53.793,0,0,1,12.384,59.132c-.061-.123-.13-.242-.192-.361-.207-.391-.4-.79-.587-1.185-.219-.445-.437-.894-.641-1.347-.1-.23-.2-.46-.307-.694A54.172,54.172,0,0,1,6.227,32.081l-.069.069A34.141,34.141,0,0,0-3.86,7.416a34.238,34.238,0,0,0-48.424,0,34.237,34.237,0,0,0,0,48.424,34.117,34.117,0,0,0,24.73,10.017l-.1.1A53.642,53.642,0,0,1,12.338,81.645a53.758,53.758,0,0,1,9.511,12.864c.065.119.134.238.2.361.2.391.4.786.587,1.182.219.449.434.9.637,1.347.107.23.207.464.311.694a54.093,54.093,0,0,1,4.447,21.354,34.306,34.306,0,1,0,68.451.414,53.721,53.721,0,0,1,28.563-47.772c.123-.065.242-.134.361-.2.4-.2.79-.4,1.185-.587.449-.219.894-.434,1.347-.637.23-.107.46-.207.694-.311a54.168,54.168,0,0,1,23.468-4.431l-.073-.069A34.233,34.233,0,0,0,176.755,7.416Z" transform="translate(62.315 2.615)" fill="none" stroke="#40948d" stroke-width="1.5"/>
      </g>
      <g id="Group_886" data-name="Group 886" transform="translate(227.258 271.448)">
        <path id="Path_1219" data-name="Path 1219" d="M0,25.432a34.4,34.4,0,1,0,34.4-34.4A34.4,34.4,0,0,0,0,25.432Z" transform="translate(0 8.966)" fill="none" stroke="#40948d" stroke-width="1.5"/>
      </g>
      <g id="Group_887" data-name="Group 887" transform="translate(587.69 192.016)">
        <path id="Path_1220" data-name="Path 1220" d="M7.414,110.039A34.233,34.233,0,0,0,65.855,85.305l.1.1A53.784,53.784,0,0,1,94.5,35.9c.123-.061.242-.13.364-.2.391-.2.786-.391,1.185-.587.445-.215.894-.434,1.343-.637.234-.1.464-.207.694-.307a54.133,54.133,0,0,1,23.468-4.431l-.069-.069c.15,0,.3,0,.457,0s.292,0,.437,0l-.1.1a53.773,53.773,0,0,1,49.506,28.547c.061.123.13.242.192.361.207.391.4.79.587,1.185.219.445.437.894.641,1.347.1.23.207.46.307.694a54.106,54.106,0,0,1,4.431,23.464l.069-.069A34.241,34.241,0,1,0,211.723,51.6l.1-.1a53.642,53.642,0,0,1-39.988-15.684,53.672,53.672,0,0,1-9.515-12.864c-.065-.119-.134-.238-.2-.361-.2-.391-.4-.786-.587-1.182-.219-.449-.434-.894-.637-1.347-.107-.23-.207-.464-.311-.694A54.093,54.093,0,0,1,156.144-1.99a34.155,34.155,0,0,0-9.921-26.779,34.145,34.145,0,0,0-24.289-10.025A34.143,34.143,0,0,0,97.648-28.769,34.17,34.17,0,0,0,87.693-2.4a53.6,53.6,0,0,1-15.7,38.258A53.851,53.851,0,0,1,59.13,45.367c-.123.065-.242.134-.361.2-.391.2-.79.4-1.185.587-.449.219-.894.434-1.347.637-.23.107-.46.207-.694.311a54.1,54.1,0,0,1-23.464,4.427l.069.073A34.233,34.233,0,0,0,7.414,110.039Z" transform="translate(2.614 38.794)" fill="none" stroke="#40948d" stroke-width="1.5"/>
      </g>
      <g id="Group_888" data-name="Group 888" transform="translate(677.753 282.077)">
        <path id="Path_1221" data-name="Path 1221" d="M50.867,25.435a34.4,34.4,0,1,0-34.4,34.4A34.4,34.4,0,0,0,50.867,25.435Z" transform="translate(17.933 8.967)" fill="none" stroke="#40948d" stroke-width="1.5"/>
      </g>
      <g id="Group_889" data-name="Group 889" transform="translate(0.455 171.141)">
        <path id="Path_1222" data-name="Path 1222" d="M146.057,25.492a34.471,34.471,0,0,0-59.22-24V1.345A54.022,54.022,0,0,1,47.2,18.651a54.2,54.2,0,0,1-15.929-2.382c-.134-.042-.269-.077-.4-.119-.422-.134-.84-.284-1.258-.426-.476-.165-.948-.326-1.416-.5l-.714-.276A54.523,54.523,0,0,1,7.621,1.391v.1c-.107-.107-.219-.211-.326-.322A34.366,34.366,0,0,0-17.121-8.987,34.334,34.334,0,0,0-39.6-.639c-.5.5-1,1.009-1.515,1.492h.1A34.362,34.362,0,0,0-51.492,25.6,34.369,34.369,0,0,0-41.448,49.923,34.372,34.372,0,0,0-17.121,59.97,34.37,34.37,0,0,0,7.621,49.493v.146c.4-.426.809-.836,1.22-1.247A54.111,54.111,0,0,1,63.193,34.715c.13.042.265.077.4.119.426.134.84.284,1.262.426.472.165.944.326,1.412.5l.714.276A54.49,54.49,0,0,1,86.837,49.593v-.1a34.471,34.471,0,0,0,59.22-24Z" transform="translate(51.492 8.987)" fill="none" stroke="#40948d" stroke-width="1.5"/>
      </g>
    </g>
    <g id="Group_918" data-name="Group 918" transform="translate(-539 156.732)" clip-path="url(#clip-path)">
      <g id="Group_905" data-name="Group 905" transform="translate(317.9 181.562)">
        <path id="Path_1234" data-name="Path 1234" d="M176.755,7.416A34.233,34.233,0,0,0,118.314,32.15l-.1-.1A53.784,53.784,0,0,1,89.667,81.553c-.123.061-.242.13-.364.2-.391.2-.786.391-1.185.587-.445.215-.894.434-1.343.637-.234.1-.464.207-.694.307A54.133,54.133,0,0,1,62.612,87.71l.069.069c-.15,0-.3,0-.457,0s-.292,0-.437,0l.1-.1A53.793,53.793,0,0,1,12.384,59.132c-.061-.123-.13-.242-.192-.361-.207-.391-.4-.79-.591-1.185-.215-.445-.434-.894-.637-1.347-.1-.23-.207-.46-.307-.694A54.116,54.116,0,0,1,6.227,32.081l-.069.069A34.141,34.141,0,0,0-3.86,7.416a34.238,34.238,0,0,0-48.424,0,34.237,34.237,0,0,0,0,48.424,34.117,34.117,0,0,0,24.73,10.017l-.1.1A53.642,53.642,0,0,1,12.338,81.645a53.758,53.758,0,0,1,9.511,12.864c.065.119.134.238.2.361.2.391.391.786.587,1.182.219.449.434.9.637,1.347.107.23.207.464.311.694a54.093,54.093,0,0,1,4.447,21.354,34.306,34.306,0,1,0,68.451.414,53.721,53.721,0,0,1,28.563-47.772c.123-.065.242-.134.361-.2.391-.2.79-.4,1.185-.587.449-.219.894-.434,1.347-.637.23-.107.46-.207.694-.311A54.1,54.1,0,0,1,152.09,65.93l-.069-.073A34.233,34.233,0,0,0,176.755,7.416Z" transform="translate(62.315 2.615)" fill="none" stroke="#40948d" stroke-width="1.5"/>
      </g>
      <g id="Group_906" data-name="Group 906" transform="translate(408.134 181.561)">
        <path id="Path_1235" data-name="Path 1235" d="M0,25.435a34.4,34.4,0,1,0,34.4-34.4A34.4,34.4,0,0,0,0,25.435Z" transform="translate(0 8.967)" fill="none" stroke="#40948d" stroke-width="1.5"/>
      </g>
      <g id="Group_907" data-name="Group 907" transform="translate(227.836 0.456)">
        <path id="Path_1236" data-name="Path 1236" d="M7.414,110.039A34.233,34.233,0,0,0,65.855,85.305l.1.1A53.773,53.773,0,0,1,94.506,35.9c.119-.061.238-.13.361-.192.391-.207.786-.4,1.185-.591.445-.215.894-.434,1.343-.637.234-.1.464-.207.694-.307a54.133,54.133,0,0,1,23.468-4.431l-.069-.069c.153,0,.3,0,.457,0s.292,0,.437,0l-.1.1a53.793,53.793,0,0,1,49.506,28.547c.061.123.13.242.2.361.2.391.391.79.587,1.185.215.449.434.894.637,1.347.1.23.207.46.307.694a54.123,54.123,0,0,1,4.431,23.468l.069-.073A34.241,34.241,0,1,0,211.723,51.6l.1-.1a53.633,53.633,0,0,1-39.988-15.684,53.831,53.831,0,0,1-9.515-12.86c-.065-.123-.134-.242-.2-.364-.2-.391-.391-.786-.587-1.182-.219-.449-.434-.894-.637-1.347-.107-.23-.207-.464-.307-.694a54.012,54.012,0,0,1-4.45-21.35,34.15,34.15,0,0,0-9.921-26.779,34.133,34.133,0,0,0-24.289-10.029A34.131,34.131,0,0,0,97.648-28.765,34.14,34.14,0,0,0,87.7-2.4a53.616,53.616,0,0,1-15.7,38.258A53.748,53.748,0,0,1,59.13,45.367c-.123.065-.242.134-.361.2-.391.2-.79.4-1.185.587-.445.219-.894.434-1.347.637-.23.107-.46.207-.694.311a54.162,54.162,0,0,1-23.464,4.431l.069.069A34.233,34.233,0,0,0,7.414,110.039Z" transform="translate(2.614 38.794)" fill="none" stroke="#40948d" stroke-width="1.5"/>
      </g>
      <g id="Group_908" data-name="Group 908" transform="translate(317.9 90.52)">
        <path id="Path_1237" data-name="Path 1237" d="M50.867,25.432a34.4,34.4,0,1,0-34.4,34.4A34.4,34.4,0,0,0,50.867,25.432Z" transform="translate(17.933 8.966)" fill="none" stroke="#40948d" stroke-width="1.5"/>
      </g>
      <g id="Group_909" data-name="Group 909" transform="translate(497.454 91.499)">
        <path id="Path_1238" data-name="Path 1238" d="M176.755,7.416A34.233,34.233,0,0,0,118.314,32.15l-.1-.1A53.784,53.784,0,0,1,89.667,81.553c-.123.061-.242.13-.364.192-.391.207-.786.4-1.185.591-.445.215-.894.434-1.343.637-.234.1-.464.207-.694.307A54.133,54.133,0,0,1,62.612,87.71l.069.069c-.15,0-.3,0-.457,0s-.292,0-.437,0l.1-.1A53.793,53.793,0,0,1,12.384,59.132c-.061-.123-.13-.242-.192-.361-.207-.391-.4-.79-.587-1.185-.219-.449-.437-.894-.641-1.347-.1-.23-.207-.46-.307-.694A54.123,54.123,0,0,1,6.227,32.077l-.069.073A34.141,34.141,0,0,0-3.86,7.416a34.238,34.238,0,0,0-48.424,0,34.237,34.237,0,0,0,0,48.424A34.119,34.119,0,0,0-27.55,65.858l-.1.1A53.628,53.628,0,0,1,12.334,81.645,53.831,53.831,0,0,1,21.849,94.5c.065.123.134.242.2.364.2.391.391.786.587,1.182.219.449.434.9.637,1.347.107.23.207.464.311.694a54.075,54.075,0,0,1,4.447,21.35,34.306,34.306,0,1,0,68.451.418,53.721,53.721,0,0,1,28.563-47.772c.123-.065.242-.134.361-.2.391-.2.79-.4,1.185-.587.449-.219.894-.434,1.347-.637.23-.107.46-.207.694-.311a54.162,54.162,0,0,1,23.464-4.431l-.069-.069A34.233,34.233,0,0,0,176.755,7.416Z" transform="translate(62.315 2.615)" fill="none" stroke="#40948d" stroke-width="1.5"/>
      </g>
      <g id="Group_910" data-name="Group 910" transform="translate(587.688 91.502)">
        <path id="Path_1239" data-name="Path 1239" d="M0,25.432a34.4,34.4,0,1,0,34.4-34.4A34.4,34.4,0,0,0,0,25.432Z" transform="translate(0 8.966)" fill="none" stroke="#40948d" stroke-width="1.5"/>
      </g>
      <g id="Group_911" data-name="Group 911" transform="translate(407.387 279.069)">
        <path id="Path_1240" data-name="Path 1240" d="M7.416,110.039A34.233,34.233,0,0,0,65.858,85.305l.1.1A53.784,53.784,0,0,1,94.5,35.9c.123-.061.242-.13.364-.2.391-.2.786-.391,1.185-.587.445-.215.894-.434,1.343-.637.234-.1.464-.207.694-.307a54.133,54.133,0,0,1,23.468-4.431l-.069-.069c.15,0,.3,0,.457,0s.292,0,.437,0l-.1.1a53.793,53.793,0,0,1,49.506,28.547c.061.123.13.242.192.361.207.391.4.79.587,1.185.219.449.437.894.641,1.347.1.23.2.46.307.694a54.123,54.123,0,0,1,4.431,23.468l.069-.073A34.241,34.241,0,1,0,211.725,51.6l.1-.1a53.642,53.642,0,0,1-39.992-15.684,53.815,53.815,0,0,1-9.511-12.86c-.065-.123-.134-.242-.2-.364-.2-.391-.4-.786-.587-1.182-.219-.449-.434-.894-.637-1.347-.107-.23-.207-.464-.311-.694a54.089,54.089,0,0,1-4.447-21.35,34.15,34.15,0,0,0-9.921-26.779,34.133,34.133,0,0,0-24.289-10.029A34.131,34.131,0,0,0,97.651-28.765,34.157,34.157,0,0,0,87.695-2.4,53.611,53.611,0,0,1,72,35.857a53.834,53.834,0,0,1-12.864,9.511c-.123.065-.242.134-.361.2-.391.2-.79.4-1.185.587-.449.219-.894.434-1.347.637-.23.107-.46.207-.694.311a54.179,54.179,0,0,1-23.468,4.431l.073.069A34.233,34.233,0,0,0,7.416,110.039Z" transform="translate(2.615 38.794)" fill="none" stroke="#40948d" stroke-width="1.5"/>
      </g>
      <g id="Group_912" data-name="Group 912" transform="translate(497.453 369.13)">
        <path id="Path_1241" data-name="Path 1241" d="M50.867,25.435a34.4,34.4,0,1,0-34.4,34.4A34.4,34.4,0,0,0,50.867,25.435Z" transform="translate(17.933 8.967)" fill="none" stroke="#40948d" stroke-width="1.5"/>
      </g>
      <g id="Group_913" data-name="Group 913" transform="translate(137.024 271.446)">
        <path id="Path_1242" data-name="Path 1242" d="M176.755,7.416A34.233,34.233,0,0,0,118.314,32.15l-.1-.1A53.784,53.784,0,0,1,89.667,81.553c-.123.061-.242.13-.364.2-.391.2-.786.391-1.185.587-.445.215-.894.434-1.343.637-.234.1-.464.207-.694.307A54.133,54.133,0,0,1,62.612,87.71l.069.069c-.15,0-.3,0-.457,0s-.292,0-.437,0l.1-.1A53.793,53.793,0,0,1,12.384,59.132c-.061-.123-.13-.242-.192-.361-.207-.391-.4-.79-.587-1.185-.219-.445-.437-.894-.641-1.347-.1-.23-.2-.46-.307-.694A54.172,54.172,0,0,1,6.227,32.081l-.069.069A34.141,34.141,0,0,0-3.86,7.416a34.238,34.238,0,0,0-48.424,0,34.237,34.237,0,0,0,0,48.424,34.117,34.117,0,0,0,24.73,10.017l-.1.1A53.642,53.642,0,0,1,12.338,81.645a53.758,53.758,0,0,1,9.511,12.864c.065.119.134.238.2.361.2.391.4.786.587,1.182.219.449.434.9.637,1.347.107.23.207.464.311.694a54.093,54.093,0,0,1,4.447,21.354,34.306,34.306,0,1,0,68.451.414,53.721,53.721,0,0,1,28.563-47.772c.123-.065.242-.134.361-.2.4-.2.79-.4,1.185-.587.449-.219.894-.434,1.347-.637.23-.107.46-.207.694-.311a54.168,54.168,0,0,1,23.468-4.431l-.073-.069A34.233,34.233,0,0,0,176.755,7.416Z" transform="translate(62.315 2.615)" fill="none" stroke="#40948d" stroke-width="1.5"/>
      </g>
      <g id="Group_914" data-name="Group 914" transform="translate(227.258 271.448)">
        <path id="Path_1243" data-name="Path 1243" d="M0,25.432a34.4,34.4,0,1,0,34.4-34.4A34.4,34.4,0,0,0,0,25.432Z" transform="translate(0 8.966)" fill="none" stroke="#40948d" stroke-width="1.5"/>
      </g>
      <g id="Group_915" data-name="Group 915" transform="translate(587.69 192.016)">
        <path id="Path_1244" data-name="Path 1244" d="M7.414,110.039A34.233,34.233,0,0,0,65.855,85.305l.1.1A53.784,53.784,0,0,1,94.5,35.9c.123-.061.242-.13.364-.2.391-.2.786-.391,1.185-.587.445-.215.894-.434,1.343-.637.234-.1.464-.207.694-.307a54.133,54.133,0,0,1,23.468-4.431l-.069-.069c.15,0,.3,0,.457,0s.292,0,.437,0l-.1.1a53.773,53.773,0,0,1,49.506,28.547c.061.123.13.242.192.361.207.391.4.79.587,1.185.219.445.437.894.641,1.347.1.23.207.46.307.694a54.106,54.106,0,0,1,4.431,23.464l.069-.069A34.241,34.241,0,1,0,211.723,51.6l.1-.1a53.642,53.642,0,0,1-39.988-15.684,53.672,53.672,0,0,1-9.515-12.864c-.065-.119-.134-.238-.2-.361-.2-.391-.4-.786-.587-1.182-.219-.449-.434-.894-.637-1.347-.107-.23-.207-.464-.311-.694A54.093,54.093,0,0,1,156.144-1.99a34.155,34.155,0,0,0-9.921-26.779,34.145,34.145,0,0,0-24.289-10.025A34.143,34.143,0,0,0,97.648-28.769,34.17,34.17,0,0,0,87.693-2.4a53.6,53.6,0,0,1-15.7,38.258A53.851,53.851,0,0,1,59.13,45.367c-.123.065-.242.134-.361.2-.391.2-.79.4-1.185.587-.449.219-.894.434-1.347.637-.23.107-.46.207-.694.311a54.1,54.1,0,0,1-23.464,4.427l.069.073A34.233,34.233,0,0,0,7.414,110.039Z" transform="translate(2.614 38.794)" fill="none" stroke="#40948d" stroke-width="1.5"/>
      </g>
      <g id="Group_916" data-name="Group 916" transform="translate(677.753 282.077)">
        <path id="Path_1245" data-name="Path 1245" d="M50.867,25.435a34.4,34.4,0,1,0-34.4,34.4A34.4,34.4,0,0,0,50.867,25.435Z" transform="translate(17.933 8.967)" fill="none" stroke="#40948d" stroke-width="1.5"/>
      </g>
      <g id="Group_917" data-name="Group 917" transform="translate(0.455 171.141)">
        <path id="Path_1246" data-name="Path 1246" d="M146.057,25.492a34.471,34.471,0,0,0-59.22-24V1.345A54.022,54.022,0,0,1,47.2,18.651a54.2,54.2,0,0,1-15.929-2.382c-.134-.042-.269-.077-.4-.119-.422-.134-.84-.284-1.258-.426-.476-.165-.948-.326-1.416-.5l-.714-.276A54.523,54.523,0,0,1,7.621,1.391v.1c-.107-.107-.219-.211-.326-.322A34.366,34.366,0,0,0-17.121-8.987,34.334,34.334,0,0,0-39.6-.639c-.5.5-1,1.009-1.515,1.492h.1A34.362,34.362,0,0,0-51.492,25.6,34.369,34.369,0,0,0-41.448,49.923,34.372,34.372,0,0,0-17.121,59.97,34.37,34.37,0,0,0,7.621,49.493v.146c.4-.426.809-.836,1.22-1.247A54.111,54.111,0,0,1,63.193,34.715c.13.042.265.077.4.119.426.134.84.284,1.262.426.472.165.944.326,1.412.5l.714.276A54.49,54.49,0,0,1,86.837,49.593v-.1a34.471,34.471,0,0,0,59.22-24Z" transform="translate(51.492 8.987)" fill="none" stroke="#40948d" stroke-width="1.5"/>
      </g>
    </g>
  </g>
</svg>
