<svg xmlns="http://www.w3.org/2000/svg" xmlns:xlink="http://www.w3.org/1999/xlink" width="52.791" height="55.338" viewBox="0 0 52.791 55.338">
  <defs>
    <clipPath id="clip-path-search">
      <path id="Path_1229" data-name="Path 1229" d="M0,41.411H52.791V-13.927H0Z" transform="translate(0 13.927)" fill="none"/>
    </clipPath>
  </defs>
  <g id="Group_899" data-name="Group 899" transform="translate(0 13.927)">
    <g id="Group_898" data-name="Group 898" transform="translate(0 -13.927)" clip-path="url(#clip-path-search)">
      <g id="Group_897" data-name="Group 897" transform="translate(-0.002 -0.001)">
        <path id="Path_1228" data-name="Path 1228" d="M16.208,30.507a18.118,18.118,0,0,0,7.406-1.514,19.486,19.486,0,0,0,6.091-4.1,19.4,19.4,0,0,0,4.1-6.091,18.149,18.149,0,0,0,1.51-7.4,18.167,18.167,0,0,0-1.51-7.406,19.4,19.4,0,0,0-4.1-6.091,19.486,19.486,0,0,0-6.091-4.1,18.118,18.118,0,0,0-7.406-1.514A18.118,18.118,0,0,0,8.8-6.2,19.486,19.486,0,0,0,2.71-2.1a19.4,19.4,0,0,0-4.1,6.091A18.167,18.167,0,0,0-2.9,11.4a18.149,18.149,0,0,0,1.51,7.4,19.4,19.4,0,0,0,4.1,6.091,19.486,19.486,0,0,0,6.091,4.1,18.118,18.118,0,0,0,7.406,1.514m12.58-1.434A24.3,24.3,0,0,1,22.9,31.982a20.794,20.794,0,0,1-6.687,1.073,21.61,21.61,0,0,1-8.44-1.669A22.689,22.689,0,0,1-3.778,19.839,21.613,21.613,0,0,1-5.451,11.4,21.647,21.647,0,0,1-3.778,2.956,22.662,22.662,0,0,1,7.769-8.587a21.542,21.542,0,0,1,8.44-1.673,21.542,21.542,0,0,1,8.44,1.673A22.7,22.7,0,0,1,36.195,2.956,21.647,21.647,0,0,1,37.867,11.4a20.868,20.868,0,0,1-1.713,8.4,22.013,22.013,0,0,1-4.661,6.886l15.29,15.29a1.8,1.8,0,1,1-2.547,2.547Z" transform="translate(5.451 10.26)" fill="#fff"/>
      </g>
    </g>
  </g>
</svg>
